<?xml version="1.0" encoding="UTF-8"?>
<svg version="1.1" xmlns="http://www.w3.org/2000/svg" width="1024" height="1024">
<path d="M0 0 C337.92 0 675.84 0 1024 0 C1024 337.92 1024 675.84 1024 1024 C686.08 1024 348.16 1024 0 1024 C0 686.08 0 348.16 0 0 Z " fill="#FEFEFE" transform="translate(0,0)"/>
<path d="M0 0 C3.18918279 0.03980374 6.37422102 0.02061658 9.56347656 -0.00512695 C11.61817997 0.002431 13.67287429 0.0133833 15.72753906 0.02807617 C17.13575424 0.01760002 17.13575424 0.01760002 18.57241821 0.00691223 C26.73580592 0.17886182 33.13444273 2.83166635 39.37597656 8.10229492 C45.69389087 15.68379209 48.82820075 21.58995459 48.79052734 31.85595703 C48.79076841 32.54074159 48.79100948 33.22552614 48.79125786 33.93106174 C48.7897788 36.12239163 48.77461181 38.31337058 48.75878906 40.50463867 C48.75584424 41.86763343 48.75380651 43.23063045 48.75268555 44.59362793 C48.74224906 49.61738501 48.71432653 54.64109351 48.68847656 59.66479492 C48.64722656 70.90541992 48.60597656 82.14604492 48.56347656 93.72729492 C18.53347656 93.72729492 -11.49652344 93.72729492 -42.43652344 93.72729492 C-42.51902344 82.56916992 -42.60152344 71.41104492 -42.68652344 59.91479492 C-42.72293945 56.41265381 -42.75935547 52.9105127 -42.796875 49.30224609 C-42.81494141 44.9720459 -42.81494141 44.9720459 -42.81829834 42.93452454 C-42.82437588 41.53412263 -42.83830725 40.1337395 -42.85882568 38.73347473 C-43.00563392 28.1717743 -42.22810279 18.76749861 -35.93652344 9.91479492 C-25.71596208 -0.46386429 -13.64729448 -0.19065763 0 0 Z " fill="#2DB4F2" transform="translate(204.4365234375,412.272705078125)"/>
<path d="M0 0 C0.79329208 -0.00807175 1.58658417 -0.01614349 2.40391541 -0.02445984 C4.0859052 -0.03828933 5.76792293 -0.04901657 7.44995117 -0.05688477 C9.15576504 -0.06835704 10.86154437 -0.08873286 12.56713867 -0.1184082 C24.50686708 -0.32604557 35.15373979 -0.20161887 44.4296875 8.39453125 C49.29176169 14.23396896 52.0483524 21.28919868 52.1418457 28.84814453 C52.16109856 30.21073898 52.16109856 30.21073898 52.18074036 31.6008606 C52.18812729 32.57691254 52.19551422 33.55296448 52.203125 34.55859375 C52.21119675 35.57243134 52.21926849 36.58626892 52.22758484 37.63082886 C52.24140838 39.77763163 52.25213826 41.92445622 52.26000977 44.07128906 C52.27150954 46.25527434 52.29192936 48.43923196 52.3215332 50.62304688 C52.36444291 53.78925558 52.38041322 56.95462945 52.390625 60.12109375 C52.40813309 61.08500031 52.42564117 62.04890686 52.44367981 63.04202271 C52.41789482 71.21502078 50.40483507 79.64841494 44.70703125 85.859375 C34.43330399 93.99082281 23.62033074 94.41870188 11.08984375 94.42578125 C9.95675781 94.43802734 8.82367188 94.45027344 7.65625 94.46289062 C-3.31186244 94.48195455 -12.23654744 93.22629199 -21.03515625 86.23828125 C-28.38826242 78.15913308 -30.51096238 68.07314188 -30.43359375 57.42578125 C-30.43646393 56.53141357 -30.43933411 55.6370459 -30.44229126 54.71557617 C-30.44431676 52.84 -30.43889395 50.96440196 -30.42626953 49.08886719 C-30.41019397 46.24495465 -30.42617013 43.40246296 -30.4453125 40.55859375 C-30.4433298 38.72265317 -30.43948557 36.88671345 -30.43359375 35.05078125 C-30.43966644 34.21506592 -30.44573914 33.37935059 -30.45199585 32.51831055 C-30.35103296 23.89334832 -28.41249201 15.86853007 -22.91796875 9.0625 C-16.23287956 2.585453 -9.10733292 0.08823268 0 0 Z " fill="#2EB4F2" transform="translate(290.03515625,412.76171875)"/>
<path d="M0 0 C1.53413202 0.00373685 3.06826646 0.00658064 4.60240173 0.00857544 C8.61203773 0.01615908 12.6215255 0.03576135 16.63110352 0.0579834 C20.73386633 0.07855628 24.83665343 0.08760147 28.93945312 0.09765625 C36.96881751 0.119013 44.99806212 0.15308412 53.02734375 0.1953125 C53.10377253 7.00879687 53.15610198 13.82216955 53.19213867 20.63598633 C53.20717104 22.95113252 53.22760245 25.2662505 53.25366211 27.58129883 C53.29028971 30.92015574 53.30712616 34.2586342 53.3203125 37.59765625 C53.33579636 38.62301987 53.35128021 39.64838348 53.36723328 40.70481873 C53.36947108 50.38650338 51.32000372 58.55717865 44.53125 65.7890625 C36.95091762 72.93173135 28.38290457 73.65730576 18.34375 73.62890625 C17.24820297 73.6341481 16.15265594 73.63938995 15.02391052 73.64479065 C12.71866703 73.65118296 10.41339079 73.64991028 8.1081543 73.64135742 C4.60340684 73.63284544 1.10029014 73.66165366 -2.40429688 73.69335938 C-4.65494743 73.69497173 -6.90560085 73.69439321 -9.15625 73.69140625 C-10.1919664 73.70264023 -11.2276828 73.71387421 -12.29478455 73.72544861 C-21.40837043 73.63920016 -29.62444634 71.35281436 -36.4375 65.0390625 C-43.53426556 56.51572066 -44.19348577 47.61103183 -44.28515625 37.0078125 C-44.31416016 35.90888672 -44.34316406 34.80996094 -44.37304688 33.67773438 C-44.45217667 23.46999034 -41.87056065 16.44371252 -34.88671875 8.984375 C-24.82568474 -0.41961189 -13.04772352 -0.09395019 0 0 Z " fill="#A0A9B3" transform="translate(288.97265625,515.8046875)"/>
<path d="M0 0 C2.30480518 1.69848206 4.37352042 3.47834833 6.44140625 5.45703125 C7.39660156 6.3696875 7.39660156 6.3696875 8.37109375 7.30078125 C17.2338188 16.58191821 19.8717074 27.160637 19.65234375 39.6328125 C19.04528631 50.63853904 14.20298458 60.22505908 6.19140625 67.76953125 C-3.97087824 76.20968364 -15.4470104 79.63255252 -28.55859375 78.45703125 C-40.31811934 76.25913902 -49.55752122 71.47496249 -57.55859375 62.45703125 C-59.99014667 58.60457086 -61.85424398 54.67619083 -63.55859375 50.45703125 C-64.01234375 49.34328125 -64.46609375 48.22953125 -64.93359375 47.08203125 C-67.18522237 34.02258527 -65.31322421 22.89841144 -58.21875 11.77734375 C-53.45182477 5.11486472 -47.9626762 0.90049719 -40.55859375 -2.54296875 C-39.56279297 -3.02443359 -39.56279297 -3.02443359 -38.546875 -3.515625 C-26.67838123 -8.37605578 -10.8098257 -6.51890252 0 0 Z " fill="#041930" transform="translate(854.55859375,441.54296875)"/>
<path d="M0 0 C10.39029972 5.72707647 17.74848872 13.85492741 21.19921875 25.2734375 C23.10046738 32.74578679 23.2890625 38.16876858 23.2890625 46.26171875 C4.4790625 46.26171875 -14.3309375 46.26171875 -33.7109375 46.26171875 C-29.19759277 56.25348871 -29.19759277 56.25348871 -20.7109375 61.26171875 C-11.28004819 62.9750227 -3.6090199 59.00056819 4.2890625 54.26171875 C8.5790625 58.55171875 12.8690625 62.84171875 17.2890625 67.26171875 C13.73058412 74.37867551 6.10877504 78.08175883 -1.29296875 80.56640625 C-12.55897338 82.85823348 -25.45134891 82.8247727 -35.7109375 77.26171875 C-36.4946875 76.83761719 -37.2784375 76.41351562 -38.0859375 75.9765625 C-48.43671878 69.69965291 -54.51946481 60.79522051 -58.3203125 49.44140625 C-60.63720747 36.51313231 -58.55339921 24.08367729 -51.171875 13.16796875 C-39.3424552 -2.26721003 -18.12555653 -7.99656906 0 0 Z " fill="#04192F" transform="translate(758.7109375,438.73828125)"/>
<path d="M0 0 C1.23298828 -0.01611328 2.46597656 -0.03222656 3.73632812 -0.04882812 C15.36710156 -0.05503783 22.50590851 1.73194397 31.015625 9.83203125 C34.08338199 13.33567457 35.84036881 16.88137038 37.1875 21.3125 C37.37699219 21.89386719 37.56648438 22.47523438 37.76171875 23.07421875 C39.89754726 34.30201449 38.77705979 47.51797612 33.4375 57.625 C32.695 58.511875 31.9525 59.39875 31.1875 60.3125 C30.72859375 60.88484375 30.2696875 61.4571875 29.796875 62.046875 C23.61359853 69.07059681 16.19934747 72.13863322 6.94140625 72.79296875 C-6.45925113 73.31974766 -16.55022882 71.84105715 -27.25 63.25 C-35.61027653 54.98396169 -37.22828554 46.58454566 -37.375 35.1875 C-37.38998535 34.2694458 -37.4049707 33.3513916 -37.42041016 32.40551758 C-37.2730836 22.72962961 -34.25088435 15.0279875 -27.60546875 8 C-19.26106459 0.14644314 -10.89302432 -0.02820566 0 0 Z " fill="#0C69B3" transform="translate(197.8125,516.6875)"/>
<path d="M0 0 C0.70108887 0.00684814 1.40217773 0.01369629 2.12451172 0.02075195 C7.92772193 0.20004577 12.27493311 1.29799433 17.125 4.4375 C18.176875 5.0975 19.22875 5.7575 20.3125 6.4375 C25.73513432 11.28454743 28.98496171 19.38541257 30.125 26.4375 C30.20883446 28.33877952 30.24282138 30.24262989 30.23852539 32.14575195 C30.23841209 33.82692863 30.23841209 33.82692863 30.23829651 35.54206848 C30.23313522 36.7411937 30.22797394 37.94031891 30.22265625 39.17578125 C30.2212413 40.41168503 30.21982635 41.64758881 30.21836853 42.92094421 C30.21372618 46.19408345 30.20475311 49.46717287 30.19366455 52.74029541 C30.18340404 56.08532248 30.17894631 59.43035173 30.17382812 62.77539062 C30.16280907 69.32944901 30.14554953 75.88346484 30.125 82.4375 C22.205 82.4375 14.285 82.4375 6.125 82.4375 C6.09921875 78.82554687 6.0734375 75.21359375 6.046875 71.4921875 C6.0084434 67.98722599 5.96328653 64.48241103 5.91748047 60.97753906 C5.88928549 58.54499325 5.86806368 56.11235608 5.85400391 53.6796875 C5.83255492 50.17921218 5.78589157 46.67983369 5.734375 43.1796875 C5.73314636 42.09509247 5.73191772 41.01049744 5.73065186 39.89303589 C5.61271741 33.78893438 5.23334996 30.07251211 1.125 25.4375 C-3.08767777 22.51061946 -7.94657873 22.81463475 -12.875 23.4375 C-17.9338879 25.82897428 -19.89243004 28.27554974 -21.875 33.4375 C-22.33698978 37.27689093 -22.36348522 41.09692197 -22.38671875 44.9609375 C-22.40466995 46.06225006 -22.42262115 47.16356262 -22.44111633 48.29824829 C-22.49513758 51.80296035 -22.52908964 55.30753683 -22.5625 58.8125 C-22.5956802 61.19402925 -22.63017051 63.57554062 -22.66601562 65.95703125 C-22.75331674 71.78387282 -22.81345792 77.61010197 -22.875 83.4375 C-30.795 83.4375 -38.715 83.4375 -46.875 83.4375 C-46.875 56.3775 -46.875 29.3175 -46.875 1.4375 C-38.955 1.4375 -31.035 1.4375 -22.875 1.4375 C-22.545 4.0775 -22.215 6.7175 -21.875 9.4375 C-21.45089844 9.03917969 -21.02679687 8.64085937 -20.58984375 8.23046875 C-20.00332031 7.70066406 -19.41679688 7.17085938 -18.8125 6.625 C-18.24402344 6.10292969 -17.67554688 5.58085937 -17.08984375 5.04296875 C-11.74582677 1.16926332 -6.50538772 -0.0979491 0 0 Z " fill="#031930" transform="translate(563.875,435.5625)"/>
<path d="M0 0 C8.7144262 5.69208185 13.11405197 11.72812147 15.5965271 21.83180237 C16.47147183 26.89364615 16.26816094 32.01533266 16.22265625 37.13671875 C16.21982635 38.34618164 16.21699646 39.55564453 16.21408081 40.80175781 C16.20293771 44.64268123 16.17784358 48.4833665 16.15234375 52.32421875 C16.14230638 54.93749662 16.13318185 57.55077816 16.125 60.1640625 C16.10472418 66.55094553 16.06556324 72.93731737 16.02734375 79.32421875 C8.10734375 79.32421875 0.18734375 79.32421875 -7.97265625 79.32421875 C-7.9984375 75.78445313 -8.02421875 72.2446875 -8.05078125 68.59765625 C-8.08921447 65.16219189 -8.13437081 61.72687695 -8.18017578 58.29150391 C-8.2083682 55.90746212 -8.22959128 53.52332717 -8.24365234 51.13916016 C-8.26510494 47.70817423 -8.31176989 44.27830651 -8.36328125 40.84765625 C-8.36450989 39.784935 -8.36573853 38.72221375 -8.36700439 37.62728882 C-8.48666093 31.55554466 -8.92287366 27.94971497 -12.97265625 23.32421875 C-16.66172331 20.16216127 -20.05156357 19.80038091 -24.7578125 19.97265625 C-29.12309589 20.66555837 -31.82233095 22.96361708 -34.60473633 26.25463867 C-36.71433835 30.98853591 -36.45369108 35.62211038 -36.484375 40.75 C-36.5023262 41.85272751 -36.5202774 42.95545502 -36.53877258 44.09159851 C-36.59286629 47.60659994 -36.62676915 51.12146562 -36.66015625 54.63671875 C-36.69333005 57.02280534 -36.72781977 59.40887402 -36.76367188 61.79492188 C-36.8510646 67.63804029 -36.91114386 73.48054133 -36.97265625 79.32421875 C-44.89265625 79.32421875 -52.81265625 79.32421875 -60.97265625 79.32421875 C-60.97265625 52.59421875 -60.97265625 25.86421875 -60.97265625 -1.67578125 C-52.72265625 -1.67578125 -44.47265625 -1.67578125 -35.97265625 -1.67578125 C-35.64265625 0.63421875 -35.31265625 2.94421875 -34.97265625 5.32421875 C-34.46476563 4.91429687 -33.956875 4.504375 -33.43359375 4.08203125 C-32.40105469 3.27378906 -32.40105469 3.27378906 -31.34765625 2.44921875 C-30.67476562 1.91554688 -30.001875 1.381875 -29.30859375 0.83203125 C-20.95009912 -4.56325124 -8.72341907 -4.62974755 0 0 Z " fill="#02172E" transform="translate(670.97265625,438.67578125)"/>
<path d="M0 0 C2.45644302 2.22372737 4.10045289 4.26241739 6 7 C1.71 11.29 -2.58 15.58 -7 20 C-7.94875 19.0925 -8.8975 18.185 -9.875 17.25 C-15.15518542 12.73939626 -20.9298858 10.35230819 -27.8125 9.5625 C-31.34915884 10.04792376 -33.31146789 10.63735057 -36 13 C-36.83333333 15.5 -36.83333333 15.5 -36 18 C-31.61230906 21.49242471 -26.6793922 21.97465116 -21.3125 22.875 C-13.8796481 24.24042259 -7.41033706 25.81282239 -1 30 C-0.071875 30.556875 0.85625 31.11375 1.8125 31.6875 C5.99535408 36.10937432 9.23949753 41.87246502 9.5 48.0625 C8.31286666 57.41117508 5.49909264 63.06265735 -2 69 C-12.89187717 76.09973425 -27.0677679 76.72755258 -39.5546875 74.3125 C-49.29337708 71.33885433 -55.81149218 65.92316532 -62 58 C-58.12207712 53.07091854 -54.23883167 49.4576289 -49 46 C-48.50371094 46.47050781 -48.00742187 46.94101562 -47.49609375 47.42578125 C-39.95668686 54.33571204 -34.31724097 56.33723483 -24.0859375 56.30078125 C-21.02058121 56.00200602 -18.77673359 55.29546493 -16 54 C-15.67 51.69 -15.34 49.38 -15 47 C-18.15057092 44.28622559 -20.74185282 43.38272984 -24.796875 42.5703125 C-25.9209375 42.33183594 -27.045 42.09335937 -28.203125 41.84765625 C-30.551182 41.36925257 -32.90013615 40.8952295 -35.25 40.42578125 C-43.64723199 38.63322145 -50.83424543 36.27886748 -56.4375 29.4375 C-56.91058594 28.87933594 -57.38367188 28.32117188 -57.87109375 27.74609375 C-60.85764014 23.12676421 -60.53668427 17.28906237 -60 12 C-58.16148972 4.78648198 -54.08675638 0.12570635 -48 -4 C-31.94274943 -12.80472573 -15.02010602 -9.27167038 0 0 Z " fill="#041830" transform="translate(451,445)"/>
<path d="M0 0 C7.92 0 15.84 0 24 0 C24 27.06 24 54.12 24 82 C16.08 82 8.16 82 0 82 C0 54.94 0 27.88 0 0 Z " fill="#02172D" transform="translate(474,437)"/>
<path d="M0 0 C2.87109375 1.52734375 2.87109375 1.52734375 5 3 C5.33 2.01 5.66 1.02 6 0 C8.97 0 11.94 0 15 0 C15.09938156 5.55007795 15.1717096 11.09963018 15.21972656 16.65039062 C15.23975767 18.53589916 15.26699073 20.42134623 15.30175781 22.30664062 C15.35065272 25.02749862 15.37305382 27.74753056 15.390625 30.46875 C15.41127014 31.30241089 15.43191528 32.13607178 15.45318604 32.99499512 C15.45535826 38.7485064 14.34235531 43.23866885 11 48 C4.13235322 53.46608621 -2.45995618 53.90810421 -11 53 C-14.58947865 51.69721968 -17.77607757 50.03769363 -21 48 C-19.75023244 44.34683329 -19.32901247 43.21934164 -16 41 C-14.01953125 41.71484375 -14.01953125 41.71484375 -11.8125 42.9375 C-6.95799017 45.28160262 -4.20917363 45.34720008 1 44 C3.06402685 43.01951062 3.06402685 43.01951062 4 41 C4.73041853 37.38976901 4.73041853 37.38976901 5 34 C4.16082031 34.71542969 4.16082031 34.71542969 3.3046875 35.4453125 C-0.50909808 38.01800176 -4.48234768 38.10039227 -9 38 C-14.44566305 36.32441137 -17.80462812 32.57968609 -21 28 C-22.96519529 22.10441412 -23.06598109 14.64260967 -21.31640625 8.6640625 C-16.71920562 -0.07252626 -9.06396787 -1.35410556 0 0 Z " fill="#05182F" transform="translate(413,546)"/>
<path d="M0 0 C4.76329041 3.89723761 8.28607163 8.00953196 8.97265625 14.28515625 C9.18610812 19.69569722 8.5889154 24.55790371 5.75 29.25 C2.55801837 32.64886933 -0.87757511 36.05134284 -5.67578125 36.453125 C-6.62839844 36.46859375 -7.58101562 36.4840625 -8.5625 36.5 C-9.50738281 36.52578125 -10.45226562 36.5515625 -11.42578125 36.578125 C-14.25 36.25 -14.25 36.25 -19.25 33.25 C-19.58 38.86 -19.91 44.47 -20.25 50.25 C-23.55 50.25 -26.85 50.25 -30.25 50.25 C-30.25 33.09 -30.25 15.93 -30.25 -1.75 C-26.95 -1.75 -23.65 -1.75 -20.25 -1.75 C-19.92 -0.76 -19.59 0.23 -19.25 1.25 C-18.38375 0.5384375 -18.38375 0.5384375 -17.5 -0.1875 C-11.91813096 -4.06379795 -5.75625693 -3.09952296 0 0 Z " fill="#071A30" transform="translate(589.25,548.75)"/>
<path d="M0 0 C4.66643291 2.69254137 7.90033466 6.20100399 9.625 11.375 C10.49177292 19.29664615 10.27120961 25.21716365 5.27734375 31.6328125 C1.51036175 35.60461858 -2.38556761 37.11848105 -7.7421875 37.578125 C-14.65427454 37.70732289 -18.7036922 36.67356718 -24.0625 32.0625 C-28.95529871 26.37627447 -29.99100111 21.74985877 -29.7890625 14.3515625 C-28.93687224 8.22544009 -26.02725027 4.66375521 -21.25 0.9375 C-14.72134675 -2.61068111 -6.84413885 -3.14178564 0 0 Z " fill="#04152B" transform="translate(496.375,547.625)"/>
<path d="M0 0 C4.86575223 3.31755834 7.94607481 7.29560306 9.75 12.875 C10.55749484 20.73399045 10.79429866 28.41504332 5.75 34.875 C0.63492148 39.74056249 -3.6962712 40.22830453 -10.5234375 40.15625 C-15.57063711 39.63562196 -18.18353795 37.03033389 -21.5 33.4375 C-25.93829191 26.93857256 -25.99178722 20.54322538 -25.25 12.875 C-23.57340794 6.90214078 -20.24322891 3.38088413 -15.25 -0.125 C-10.0828841 -1.84737197 -5.14400242 -1.78061622 0 0 Z " fill="#FDFDFD" transform="translate(839.25,458.125)"/>
<path d="M0 0 C2.97 0 5.94 0 9 0 C9.01981934 0.70608398 9.03963867 1.41216797 9.06005859 2.13964844 C9.15540415 5.34346994 9.26504513 8.54664801 9.375 11.75 C9.4059375 12.86117187 9.436875 13.97234375 9.46875 15.1171875 C9.50742187 16.18710937 9.54609375 17.25703125 9.5859375 18.359375 C9.6173584 19.34389648 9.6487793 20.32841797 9.68115234 21.34277344 C10.00501299 24.0417775 10.5368138 25.72364368 12 28 C15.09173752 29.54586876 17.59429552 29.29359521 21 29 C23.77415582 26.90421874 24.8627917 25.69095058 25.54589844 22.25097656 C25.57731934 20.71135254 25.57731934 20.71135254 25.609375 19.140625 C25.64160156 18.02558594 25.67382812 16.91054688 25.70703125 15.76171875 C25.72121094 14.60285156 25.73539063 13.44398438 25.75 12.25 C25.79447266 10.48849609 25.79447266 10.48849609 25.83984375 8.69140625 C25.91050727 5.79420178 25.96322266 2.89780045 26 0 C28.97 0 31.94 0 35 0 C35 12.21 35 24.42 35 37 C32.03 37 29.06 37 26 37 C25.67 36.01 25.34 35.02 25 34 C24.401875 34.66 23.80375 35.32 23.1875 36 C18.5261869 38.92474547 14.36601303 38.76432197 9 38 C4.54431387 36.01085441 2.43363193 33.86580982 0.59326172 29.34741211 C-0.74525296 24.05119046 -0.29839219 18.48484367 -0.1875 13.0625 C-0.17396484 11.80630859 -0.16042969 10.55011719 -0.14648438 9.25585938 C-0.11128591 6.17012721 -0.06204305 3.08528976 0 0 Z " fill="#04142A" transform="translate(514,547)"/>
<path d="M0 0 C3.72783357 3.22407227 4.8441838 5.34834829 5.3125 10.3125 C4.93568959 14.75886282 3.90226622 16.63948122 1 20 C-3.79187964 23.34317184 -8.34050287 23.73156875 -14 23 C-17.89398123 21.67751581 -19.65313142 20.39250918 -22.375 17.3125 C-24.29394797 13.40079838 -25.08299041 10.22610545 -24 6 C-21.83224674 2.31986074 -19.232907 -0.272901 -15.5625 -2.4375 C-9.52128712 -3.7636199 -5.2697882 -3.27897932 0 0 Z " fill="#04172E" transform="translate(495,406)"/>
<path d="M0 0 C2.87109375 1.52734375 2.87109375 1.52734375 5 3 C5.33 2.01 5.66 1.02 6 0 C8.97 0 11.94 0 15 0 C15 12.54 15 25.08 15 38 C14.67 38 14.34 38 14 38 C13.67 26.12 13.34 14.24 13 2 C11.35 2 9.7 2 8 2 C7.67 3.32 7.34 4.64 7 6 C6.01 6 5.02 6 4 6 C4.33 7.32 4.66 8.64 5 10 C2 10 2 10 0 9 C-5.2962469 8.43639251 -5.2962469 8.43639251 -9.9375 10.375 C-12.59175518 14.43444909 -12.58175541 18.25582558 -12 23 C-10.56348718 26.08874323 -10.56348718 26.08874323 -8 28 C-4.34683834 29.06550548 -1.60578065 29.24815484 2 28 C1.67 28.99 1.34 29.98 1 31 C-0.98 31.33 -2.96 31.66 -5 32 C-5 32.99 -5 33.98 -5 35 C-4.34 35.33 -3.68 35.66 -3 36 C-6.07265946 36.84640388 -8.81341007 37.28073512 -12 37 C-16.99442965 34.15207649 -20.35023107 30.5367855 -22 25 C-22.60640419 19.03467501 -23.22734146 12.3419878 -20.375 6.875 C-14.59275754 -0.12455666 -8.8270927 -1.31871775 0 0 Z " fill="#051529" transform="translate(413,546)"/>
<path d="M0 0 C2.97 0 5.94 0 9 0 C9.33 1.32 9.66 2.64 10 4 C10.66 3.34 11.32 2.68 12 2 C16.01858853 -0.67905902 18.25305716 -0.32182663 23 0 C23 2.97 23 5.94 23 9 C22.31292969 9.08636719 21.62585938 9.17273438 20.91796875 9.26171875 C19.56638672 9.47248047 19.56638672 9.47248047 18.1875 9.6875 C17.29417969 9.81511719 16.40085937 9.94273437 15.48046875 10.07421875 C12.9000972 10.83080069 12.9000972 10.83080069 11.21875 12.875 C9.37053459 17.61401386 9.42549432 22.26649656 9.3125 27.3125 C9.27833984 28.33923828 9.24417969 29.36597656 9.20898438 30.42382812 C9.12676591 32.94910963 9.05753064 35.4740554 9 38 C6.03 38 3.06 38 0 38 C0 25.46 0 12.92 0 0 Z " fill="#021428" transform="translate(440,546)"/>
<path d="M0 0 C3.06057563 2.29543172 4.4652558 4.63498528 5.109375 8.4296875 C5.35267977 12.44421616 5.12611115 15.48112795 2.75 18.8125 C-0.91566315 21.86721929 -3.51929027 22.72511768 -8.25 22.3125 C-11.43081391 21.04017443 -12.8895992 19.74746648 -15.0625 17.125 C-16.63501624 13.40061944 -16.84714459 10.29884363 -16.25 6.3125 C-15.00011855 3.43777265 -13.99531416 1.87148562 -11.5 0 C-7.60329061 -1.1906612 -3.89670939 -1.1906612 0 0 Z " fill="#FBFBFC" transform="translate(492.25,554.6875)"/>
<path d="M0 0 C3.4769645 1.92041644 5.74834662 3.84472232 7.8125 7.3125 C8.3075 10.2825 8.3075 10.2825 8.8125 13.3125 C-2.0775 13.3125 -12.9675 13.3125 -24.1875 13.3125 C-23.12257337 7.98786684 -21.96989929 4.27832559 -17.390625 1.04296875 C-11.40142544 -2.24180542 -6.335406 -2.86908405 0 0 Z " fill="#FCFDFD" transform="translate(749.1875,456.6875)"/>
<path d="M0 0 C3.57143799 2.05026996 5.39002548 3.23496734 6.734375 7.125 C7.455116 11.39178671 7.24907165 13.51075213 5.25 17.4375 C2.4702537 20.60332218 0.9004345 21.88107469 -3.3125 22.4375 C-8.09871363 21.86964415 -9.83906821 20.61249347 -13 17 C-14.52590424 12.84851751 -14.29591569 9.82544903 -12.8125 5.6875 C-9.24588985 0.39907806 -6.46341452 -0.89150545 0 0 Z " fill="#F8F9FA" transform="translate(582,555)"/>
<path d="M0 0 C4.39632503 2.27666832 4.39632503 2.27666832 6 5 C6.79536185 8.8165925 6.76291303 12.17969868 6 16 C3.59114117 19.54243946 2.03088514 20.65637162 -2 22 C-6.45516912 22 -8.58801328 20.26591913 -11.8125 17.375 C-13.67133546 13.65732908 -13.55181527 10.07326796 -13 6 C-10.18835533 -0.13449746 -6.52012907 -1.00216799 0 0 Z " fill="#FAFBFB" transform="translate(413,554)"/>
<path d="M0 0 C7.92 0 15.84 0 24 0 C24 2.97 24 5.94 24 9 C23.67 9 23.34 9 23 9 C23 6.36 23 3.72 23 1 C16.07 1 9.14 1 2 1 C2 27.07 2 53.14 2 80 C8.93 80 15.86 80 23 80 C23 64.49 23 48.98 23 33 C23.33 33 23.66 33 24 33 C24 49.17 24 65.34 24 82 C16.08 82 8.16 82 0 82 C0 54.94 0 27.88 0 0 Z " fill="#0C1525" transform="translate(517,437)"/>
<path d="M0 0 C2.64 0 5.28 0 8 0 C8 11.88 8 23.76 8 36 C6.02 36 4.04 36 2 36 C-0.125 29.25 -0.125 29.25 1 27 C0.34 27 -0.32 27 -1 27 C-0.67 18.09 -0.34 9.18 0 0 Z " fill="#061931" transform="translate(540,547)"/>
<path d="M0 0 C2.97 0 5.94 0 9 0 C9 1.65 9 3.3 9 5 C8.67 4.01 8.34 3.02 8 2 C6.02 2 4.04 2 2 2 C2 17.84 2 33.68 2 50 C3.98 50 5.96 50 8 50 C8 44.39 8 38.78 8 33 C8.33 33 8.66 33 9 33 C9 39.27 9 45.54 9 52 C6.03 52 3.06 52 0 52 C0 34.84 0 17.68 0 0 Z " fill="#1B2335" transform="translate(559,547)"/>
<path d="M0 0 C2.64 0 5.28 0 8 0 C8.33 1.32 8.66 2.64 9 4 C9.66 3.34 10.32 2.68 11 2 C15.01858853 -0.67905902 17.25305716 -0.32182663 22 0 C22 2.97 22 5.94 22 9 C18.3377676 10.00695357 14.80175561 10.81845549 11 11 C7.8125 8.9375 7.8125 8.9375 6 6 C5.6875 3.1875 5.6875 3.1875 6 1 C4.02 1 2.04 1 0 1 C0 0.67 0 0.34 0 0 Z " fill="#0E1C31" transform="translate(441,546)"/>
<path d="M0 0 C2.97 0 5.94 0 9 0 C9 8.25 9 16.5 9 25 C6.86395692 21.79593538 6.75791092 21.00399253 6.8046875 17.33203125 C6.81113281 16.43935547 6.81757812 15.54667969 6.82421875 14.62695312 C6.84097656 13.69818359 6.85773437 12.76941406 6.875 11.8125 C6.88402344 10.87212891 6.89304687 9.93175781 6.90234375 8.96289062 C6.92590944 6.64167032 6.95880884 4.32096356 7 2 C5.02 2 3.04 2 1 2 C1 9.59 1 17.18 1 25 C0.67 25 0.34 25 0 25 C0 16.75 0 8.5 0 0 Z " fill="#010614" transform="translate(514,547)"/>
<path d="M0 0 C7.37239542 1.84309886 12.51297127 6.01729503 17 12 C12.71 16.29 8.42 20.58 4 25 C2.4221875 23.6078125 2.4221875 23.6078125 0.8125 22.1875 C-1.97883017 19.78763687 -4.75681193 17.76901167 -8 16 C-7.34 15.67 -6.68 15.34 -6 15 C-0.25 18.75 -0.25 18.75 2 21 C5.85052606 20.74923045 7.68201567 18.63388355 10.25 15.9375 C10.95640625 15.20402344 11.6628125 14.47054688 12.390625 13.71484375 C13.18726563 12.86599609 13.18726563 12.86599609 14 12 C10.89215523 7.19696717 6.91889916 4.96608797 2.046875 2.234375 C1.37140625 1.82703125 0.6959375 1.4196875 0 1 C0 0.67 0 0.34 0 0 Z " fill="#040917" transform="translate(440,440)"/>
<path d="M0 0 C0 3 0 3 -1.375 4.6875 C-3 6 -3 6 -5 6 C-5.268125 6.61875 -5.53625 7.2375 -5.8125 7.875 C-7 10 -7 10 -10 12 C-8.62968895 6.34746692 -4.32310587 3.4886459 0 0 Z " fill="#0657AA" transform="translate(175,521)"/>
<path d="M0 0 C0.66 0 1.32 0 2 0 C2 1.32 2 2.64 2 4 C5.465 5.485 5.465 5.485 9 7 C7.4375 7.75 7.4375 7.75 5 8 C2.49713591 6.86915563 0.32992278 5.47860484 -2 4 C-1.34 2.68 -0.68 1.36 0 0 Z " fill="#020A1A" transform="translate(394,590)"/>
<path d="M0 0 C4.50002447 1.2272794 6.83678416 2.61863134 10 6 C10.99 6.33 11.98 6.66 13 7 C12.67 7.99 12.34 8.98 12 10 C11.55269531 9.60167969 11.10539062 9.20335937 10.64453125 8.79296875 C7.23958629 5.8091044 3.93753849 3.26706762 0 1 C0 0.67 0 0.34 0 0 Z " fill="#0A1020" transform="translate(432,455)"/>
<path d="M0 0 C0.66 0.33 1.32 0.66 2 1 C-3.14285714 5.42857143 -3.14285714 5.42857143 -7 6 C-2.25 1.125 -2.25 1.125 0 0 Z " fill="#19ABF0" transform="translate(277,415)"/>
<path d="M0 0 C5.75 1.75 5.75 1.75 8 4 C7.625 6.125 7.625 6.125 7 8 C6.6596875 6.824375 6.6596875 6.824375 6.3125 5.625 C5.21875 2.78125 5.21875 2.78125 2.375 1.6875 C1.59125 1.460625 0.8075 1.23375 0 1 C0 0.67 0 0.34 0 0 Z " fill="#131927" transform="translate(489,553)"/>
<path d="M0 0 C0.99 0.33 1.98 0.66 3 1 C-2.625 5 -2.625 5 -6 5 C-2.25 1.125 -2.25 1.125 0 0 Z " fill="#18AAF0" transform="translate(179,415)"/>
</svg>
